HIERARCHY
ROOT Hips
{
  OFFSET 0 0 0
  CHANNELS 6 Xposition Yposition Zposition Zrotation Yrotation Xrotation
  JOINT LeftThigh
  {
    OFFSET 8.409438 0 -5.917753
    CHANNELS 3 Zrotation Yrotation Xrotation
    JOINT LeftLeg
    {
      OFFSET 0 0 -42.358652
      CHANNELS 3 Zrotation Yrotation Xrotation
      JOINT LeftFoot
      {
        OFFSET 0 0 -39.357303
        CHANNELS 3 Zrotation Yrotation Xrotation
      }
    }
  }
  JOINT RightThigh
  {
    OFFSET -8.409438 0 -5.917753
    CHANNELS 3 Zrotation Yrotation Xrotation
    JOINT RightLeg
    {
      OFFSET 0 0 -42.358652
      CHANNELS 3 Zrotation Yrotation Xrotation
      JOINT RightFoot
      {
        OFFSET 0 0 -39.357303
        CHANNELS 3 Zrotation Yrotation Xrotation
      }
    }
  }
  JOINT SpineLow
  {
    OFFSET 0 0 4.719101
    CHANNELS 3 Zrotation Yrotation Xrotation
    JOINT SpineMid
    {
      OFFSET 0 0 12.899191
      CHANNELS 3 Zrotation Yrotation Xrotation
      JOINT Chest
      {
        OFFSET 0 0 12.899191
        CHANNELS 3 Zrotation Yrotation Xrotation
        JOINT LeftShoulder
        {
          OFFSET 7.550562 1.41573 9.438202
          CHANNELS 3 Zrotation Yrotation Xrotation
          JOINT LeftArm
          {
            OFFSET 9.155056 0 4.247191
            CHANNELS 3 Zrotation Yrotation Xrotation
            JOINT LeftForearm
            {
              OFFSET 0 0 25.771955
              CHANNELS 3 Zrotation Yrotation Xrotation
              JOINT LeftHand
              {
                OFFSET 0 0 25.197169
                CHANNELS 3 Zrotation Yrotation Xrotation
              }
            }
          }
        }
        JOINT RightShoulder
        {
          OFFSET -7.550562 1.41573 9.438202
          CHANNELS 3 Zrotation Yrotation Xrotation
          JOINT RightArm
          {
            OFFSET -9.155056 0 4.247191
            CHANNELS 3 Zrotation Yrotation Xrotation
            JOINT RightForearm
            {
              OFFSET 0 0 -25.771955
              CHANNELS 3 Zrotation Yrotation Xrotation
              JOINT RightHand
              {
                OFFSET 0 0 -25.197169
                CHANNELS 3 Zrotation Yrotation Xrotation
              }
            }
          }
        }
        JOINT Neck
        {
          OFFSET 0 0 15.101124
          CHANNELS 3 Zrotation Yrotation Xrotation
          JOINT Head
          {
            OFFSET 0 0 11.325843
            CHANNELS 3 Zrotation Yrotation Xrotation
            End Site
            {
              OFFSET 0 0 14.157303
            }
          }
        }
      }
    }
  }
}
MOTION
Frames: 14
Frame Time: 0.0
0.0  89.887642  0.0  12.432662  45.19146  -75.95514  1.240509  -38.695524  -14.747008  0.226706  46.415738  42.369997  2.52723  -1.908295  -0.099244  -38.590653  -0.03418  -56.669807  -3.088974  25.663486  54.735859  10.928447  0.603312  0.624851  -1.077552  -0.204758  -0.241071  -2.943372  -0.57029  -0.649686  -2.943372  -0.57029  -0.649686  -4.980973  23.81423  8.275979  103.780979  49.178492  -157.263905  -15.062451  -11.211223  74.306005  81.528379  0.638275  25.375836  -8.644503  6.393712  19.75825  11.668994  64.965519  -4.210512  -9.780814  -16.426578  -89.312178  92.801263  21.720095  -4.913511  -22.706628  5.489308  1.069465  -17.026554  4.08395  1.007807  
0.0  89.887642  0.0  12.327358  45.002418  -76.265721  2.220591  -38.672242  -15.215779  -1.381979  47.553979  41.617045  3.406124  -1.967823  0.03091  -38.218537  0.531066  -56.561677  -3.2679  25.515055  54.707661  10.655211  0.588251  0.594316  -1.031621  -0.212968  -0.235638  -2.817797  -0.592049  -0.634892  -2.817798  -0.592049  -0.634892  -4.75848  23.531395  8.408106  105.026063  49.056507  -156.134361  -14.845  -11.252719  74.50463  80.954758  0.957493  25.459118  -8.726408  6.317894  19.984556  11.859611  64.583846  -4.304528  -9.692166  -16.606905  -89.044255  92.679038  21.793085  -4.736401  -22.625787  5.727038  1.301924  -16.967441  4.254025  1.19039  
0.0  89.887642  0.0  12.249481  44.907001  -76.499363  3.090723  -38.647264  -15.348054  -3.078197  48.352322  40.583826  3.967622  -2.005163  0.085121  -38.079639  0.881385  -56.402945  -3.50147  25.399378  54.501986  10.5377  0.573467  0.594046  -1.007367  -0.231123  -0.265603  -2.751041  -0.642679  -0.716248  -2.751041  -0.642679  -0.716248  -4.501562  23.410328  8.699701  106.082424  48.885279  -155.219141  -14.732693  -11.396886  74.711885  80.378299  1.27662  25.661089  -8.802974  6.327705  20.351313  12.224266  64.266831  -4.305915  -9.750445  -16.674306  -88.762045  92.639699  21.950344  -4.625181  -22.539811  5.99569  1.531686  -16.90452  4.447499  1.371952  
0.0  89.887642  0.0  12.152014  44.950975  -76.776277  3.33622  -38.606823  -15.086395  -3.855877  48.545332  40.152068  3.988187  -2.035988  -0.059871  -38.264081  1.024098  -56.161767  -3.55187  25.495753  54.221107  10.42091  0.450055  0.544515  -1.011423  -0.267497  -0.313591  -2.76121  -0.744127  -0.845845  -2.76121  -0.744127  -0.845845  -4.227281  23.454568  9.129192  107.002252  48.728687  -154.455083  -14.625972  -11.526037  74.870876  79.928578  1.563194  25.931227  -8.8997  6.453206  20.800059  12.758797  63.982351  -4.195556  -9.922591  -16.628596  -88.491408  92.69835  22.187407  -4.631451  -22.454298  6.295501  1.753539  -16.841941  4.664735  1.548625  
0.0  89.887642  0.0  11.994156  45.104056  -77.136542  3.038187  -38.586647  -14.655639  -3.859545  48.391583  40.230251  3.722549  -2.068052  -0.218115  -38.656739  1.0028  -55.83812  -3.520849  25.449085  53.899129  10.411735  0.420271  0.582761  -1.028647  -0.323675  -0.360353  -2.806969  -0.899851  -0.971074  -2.806969  -0.899851  -0.971074  -4.002475  23.62697  9.629855  107.763437  48.657808  -153.833027  -14.61662  -11.594843  74.954332  79.629871  1.800605  26.272466  -9.035725  6.656823  21.21915  13.474003  63.718531  -3.906514  -10.175916  -16.483307  -88.251487  92.815211  22.473603  -4.724124  -22.418956  6.59544  1.930077  -16.81661  4.883663  1.691741  
0.0  89.887642  0.0  11.757326  45.268511  -77.5892  2.650117  -38.510381  -14.303072  -3.947486  48.175265  40.244667  3.781738  -2.045812  -0.201601  -39.432481  0.924031  -55.57049  -3.123103  25.075223  53.745168  10.204227  0.383345  0.59981  -1.05122  -0.38249  -0.375703  -2.867611  -1.06157  -1.01018  -2.867611  -1.06157  -1.01018  -3.924248  23.810435  9.964947  108.409398  48.683943  -153.408769  -14.673436  -11.507741  75.129914  79.489381  2.132007  26.432538  -9.226961  6.841747  21.456882  14.225411  63.456319  -3.572899  -10.445365  -16.267446  -88.063114  92.968722  22.714527  -4.78822  -22.416405  6.794146  2.003896  -16.815023  5.030238  1.754396  
0.0  89.887642  0.0  11.526953  45.414099  -78.022248  2.32707  -38.46847  -13.896447  -4.064765  47.991636  40.214744  3.788748  -2.099433  -0.190389  -39.829411  0.924771  -55.134825  -3.170916  24.952412  53.35002  10.144022  0.352285  0.662115  -1.059567  -0.437907  -0.37857  -2.889584  -1.213263  -1.015477  -2.889584  -1.213263  -1.015476  -3.952816  23.969786  10.182172  108.898832  48.71496  -153.112908  -14.895908  -11.39279  75.191405  79.408924  2.356615  26.512068  -9.460429  7.029545  21.639363  14.811844  63.200399  -3.319954  -10.595187  -16.029813  -87.974631  93.10171  22.940073  -4.927666  -22.490946  6.939031  2.019823  -16.870668  5.138304  1.772537  
0.0  89.887642  0.0  11.302346  45.559  -78.458797  1.912369  -38.359177  -13.50761  -4.408409  47.729261  40.032337  3.800039  -2.06846  -0.241147  -40.419904  0.939258  -54.829991  -3.025841  24.77563  53.137308  9.910698  0.287199  0.641087  -1.108093  -0.478801  -0.387285  -3.021478  -1.326144  -1.036541  -3.021479  -1.326144  -1.036541  -3.945236  24.042624  10.259767  109.458873  48.612122  -152.88131  -14.952656  -11.116799  75.484079  79.45033  2.827792  26.145045  -9.647553  7.159067  21.805929  15.637786  63.031464  -2.932313  -10.837444  -15.781738  -87.826647  93.253232  23.024521  -4.908405  -22.512497  7.088628  2.024859  -16.886464  5.250446  1.782084  
0.0  89.887642  0.0  11.120052  45.588721  -78.845149  1.514593  -38.202782  -13.019386  -4.792588  47.421187  39.744388  3.863782  -1.963607  -0.198244  -40.555621  1.190581  -54.433165  -3.346797  24.775363  52.716287  9.941367  0.174819  0.742859  -1.118072  -0.504699  -0.372688  -3.048693  -1.396398  -0.995261  -3.048693  -1.396398  -0.995261  -4.018989  24.086409  10.280797  109.708734  48.562176  -152.811154  -15.157303  -11.074288  75.54226  79.365916  3.00363  25.837869  -9.807788  7.288144  21.926234  16.088771  62.81361  -2.775023  -10.854289  -15.535934  -87.812844  93.314356  23.145034  -4.946523  -22.557784  7.126041  2.030214  -16.920343  5.278239  1.788025  
0.0  89.887642  0.0  10.851055  45.525329  -79.198335  1.094095  -38.0316  -12.65202  -5.322696  47.147906  39.221991  4.208646  -1.777104  -0.01146  -40.767966  1.351141  -54.244149  -3.670727  24.713188  52.380438  10.076744  0.093902  0.842738  -1.173611  -0.505586  -0.378978  -3.200374  -1.399944  -1.011224  -3.200374  -1.399944  -1.011224  -3.916293  23.888991  10.292568  109.210161  48.596311  -152.650001  -15.65069  -11.10236  75.325951  79.507133  3.540858  25.071215  -10.129891  7.221883  21.854559  17.330763  62.766905  -2.122817  -10.945416  -15.299555  -87.757585  93.382579  23.215495  -4.973552  -22.422611  7.09054  2.109794  -16.820136  5.249001  1.8448  
0.0  89.887642  0.0  10.570631  45.320999  -79.451075  0.805195  -37.876618  -12.325532  -5.694459  46.918697  38.824306  4.5316  -1.655147  0.114994  -40.559439  1.5492  -53.998749  -4.057835  24.582586  52.034892  10.039929  0.014157  0.949663  -1.162514  -0.510456  -0.37523  -3.170051  -1.412908  -1.000985  -3.170051  -1.412908  -1.000985  -3.990408  23.704644  10.258735  109.219501  48.524638  -152.685477  -15.919679  -11.204139  75.438605  79.388659  3.663684  24.661481  -10.199061  7.220824  21.861112  17.860489  62.621928  -1.838519  -11.016633  -15.056013  -87.74052  93.457335  23.242615  -4.960461  -22.448495  6.993093  2.131179  -16.840026  5.174941  1.857573  
0.0  89.887642  0.0  10.197169  44.936162  -79.756047  0.605271  -37.708661  -12.014324  -5.970295  46.599197  38.478334  4.929395  -1.44535  0.320679  -40.356914  1.639725  -53.838323  -4.289023  24.317597  51.787283  9.95093  -0.050607  1.046002  -1.152069  -0.509033  -0.37482  -3.141525  -1.408843  -1.000159  -3.141525  -1.408843  -1.000159  -4.029948  23.452797  10.198286  109.202023  48.415556  -152.701947  -16.087498  -11.115298  75.811822  79.510561  4.073097  24.084086  -10.45729  7.147474  21.691854  17.957559  62.548665  -1.769745  -10.776576  -14.798557  -87.93797  93.509389  23.261213  -5.087834  -22.427511  6.867246  2.159707  -16.824946  5.079413  1.874112  
0.0  89.887642  0.0  9.946876  44.517679  -79.960944  0.294134  -37.490205  -11.625465  -5.946226  46.200191  38.297319  5.168167  -1.255981  0.52624  -39.936774  1.795994  -53.647847  -4.559256  24.086557  51.533967  9.843437  -0.071331  1.14537  -1.127676  -0.497362  -0.374634  -3.075008  -1.37658  -1.000712  -3.075008  -1.37658  -1.000712  -4.074203  23.234195  10.166579  109.193198  48.275602  -152.756012  -16.3347  -11.280857  75.997809  79.348128  4.200649  23.865778  -10.41838  7.101195  21.670077  18.600414  62.524969  -1.363948  -10.988785  -14.553613  -87.904917  93.594347  23.23249  -5.143036  -22.435576  6.72603  2.192429  -16.831679  4.972103  1.893576  
0.0  89.887642  0.0  9.62584  44.094031  -80.159558  -0.086851  -37.312778  -11.257347  -5.572147  45.674148  38.377015  5.186909  -1.064434  0.685009  -39.718517  1.806948  -53.575935  -4.731503  23.759433  51.344967  9.873255  -0.080316  1.299132  -1.123114  -0.498126  -0.39971  -3.062  -1.37976  -1.069309  -3.062  -1.37976  -1.069309  -4.066347  23.070141  10.209451  109.254373  48.140459  -152.799682  -16.577568  -11.183157  76.497205  79.328937  4.678732  23.504549  -10.474917  7.111915  21.619829  19.129896  62.529477  -1.043744  -12.256701  -14.343162  -87.200073  93.287895  23.709314  -6.34502  -22.400926  6.638906  2.245373  -16.806495  4.904813  1.929716  
